<svg width="519" height="428" viewBox="0 0 519 428" fill="none" xmlns="http://www.w3.org/2000/svg">
<g clip-path="url(#clip0_16268_2949)">
<path d="M164.47 268.306C163.985 271.82 163.42 274.913 165.138 277.697C167.897 281.823 173.868 282.992 178.703 283.342C197.881 284.495 214.753 276.854 229.741 264.974L209.577 223.14C203.542 221.883 197.507 220.603 191.719 218.512C186.415 216.619 181.39 214.019 176.699 210.902C162.657 202.02 148.608 184.256 130.368 187.54C120.882 189.44 116.095 198.378 118.687 207.554C119.928 212.286 122.774 216.739 126.138 220.444C139.742 234.948 159.556 241.357 178.408 246.907" fill="white"/>
<path d="M164.47 268.306C163.985 271.82 163.42 274.913 165.138 277.697C167.897 281.823 173.868 282.992 178.703 283.342C197.881 284.495 214.753 276.854 229.741 264.974L209.577 223.14C203.542 221.883 197.507 220.603 191.719 218.512C186.415 216.619 181.39 214.019 176.699 210.902C162.657 202.02 148.608 184.256 130.368 187.54C120.882 189.44 116.095 198.378 118.687 207.554C119.928 212.286 122.774 216.739 126.138 220.444C139.742 234.948 159.556 241.357 178.408 246.907" stroke="black" stroke-miterlimit="10"/>
<path d="M199.033 268.552C181.032 271.582 152.583 276.098 138.478 262.541C134.915 258.7 134.025 252.991 138.525 249.547C144.632 244.951 154.793 246.923 162.076 246.804C167.523 246.907 178.48 246.494 185.477 244.729" fill="white"/>
<path d="M199.033 268.552C181.032 271.582 152.583 276.098 138.478 262.541C134.915 258.7 134.025 252.991 138.525 249.547C144.632 244.951 154.793 246.923 162.076 246.804C167.523 246.907 178.48 246.494 185.477 244.729" stroke="black" stroke-miterlimit="10"/>
<path d="M337.709 212.254L337.892 245.691L336.755 260.998L290.925 256.521L231.116 229.795L275.468 231.076L310.166 215.458L337.709 212.254Z" fill="white"/>
<g style="mix-blend-mode:multiply">
<path d="M127.823 209.709C126.233 213.049 128.587 217.963 132.34 221.454C141.428 229.907 149.936 232.69 153.474 233.811C154.722 234.193 155.962 234.376 156.988 234.312C159.644 234.224 159.7 231.577 157.266 229.414C155.509 227.831 143.4 219.975 138.581 213.351C135.854 209.59 130.177 204.739 127.816 209.709H127.823Z" fill="#ECECEC"/>
</g>
<g style="mix-blend-mode:multiply">
<path d="M203.613 230.105C202.174 253.42 187.313 256.306 177.263 256.752C173.987 256.974 170.648 257.205 167.587 258.016C163.158 258.946 158.61 263.097 163.031 267.145C165.599 269.49 169.9 270.126 172.842 271.86C177.231 274.484 180.189 279.12 185.866 278.698C195.249 278.19 208.376 274.985 215.603 268.862C219.412 265.65 219.913 260.235 215.945 257.006C213.616 254.931 215.023 252.14 211.795 251.178" fill="#ECECEC"/>
</g>
<path d="M312.448 254.851C305.308 266.119 297.293 277.148 285.422 283.827C263.954 296.606 234.058 293.767 215.755 276.623C203.772 265.674 199.033 251.408 199.224 233.954C199.312 226.281 199.813 222.4 199.813 222.4" fill="white"/>
<path d="M312.448 254.851C305.308 266.119 297.293 277.148 285.422 283.827C263.954 296.606 234.058 293.767 215.755 276.623C203.772 265.674 199.033 251.408 199.224 233.954C199.312 226.281 199.813 222.4 199.813 222.4" stroke="black" stroke-miterlimit="10"/>
<path d="M336.755 165.036C336.755 204.803 300.291 224.913 255.312 224.913C210.332 224.913 173.868 211.482 173.868 165.036C173.868 118.59 210.332 80.9469 255.312 80.9469C300.291 80.9469 336.755 118.598 336.755 165.036Z" stroke="white" stroke-miterlimit="10"/>
<path d="M260.146 114.678C234.504 111.688 210.817 126.113 200.974 148.592C198.89 153.355 196.275 157.888 192.832 161.776C188.133 167.08 185.127 173.259 184.34 180.049C181.446 204.898 208.654 228.483 245.802 232.809C282.942 237.135 321.696 221.669 321.505 184.272C321.449 173.537 313.705 160.87 310.174 152.035C302.064 131.727 285.009 117.565 260.154 114.67L260.146 114.678Z" fill="white" stroke="black" stroke-miterlimit="10"/>
<path d="M275.197 165.728C274.355 168.575 271.739 170.412 268.908 170.404C268.304 170.404 267.684 170.316 267.063 170.133C265.481 169.664 263.931 169.243 262.42 168.861C241.397 163.541 226.99 166.046 221.567 168.726C220.756 169.124 219.905 169.338 219.063 169.386C216.518 169.545 214.006 168.185 212.805 165.76C211.207 162.524 212.535 158.596 215.771 156.997C217.52 156.13 219.579 155.343 221.941 154.667C223.809 154.135 225.582 153.3 227.085 152.075C230.83 149.03 235.617 147.209 240.817 147.225C244.951 147.24 248.816 148.409 252.092 150.429C255.844 152.743 259.923 154.787 264.217 155.82C266.364 156.337 268.558 156.926 270.793 157.594C274.251 158.619 276.223 162.261 275.197 165.72V165.728Z" fill="#FDE666" stroke="black" stroke-miterlimit="10"/>
<path d="M233.629 153.157L233.875 156.441" stroke="black" stroke-miterlimit="10"/>
<path d="M245.055 153.188L243.695 156.472" stroke="black" stroke-miterlimit="10"/>
<path d="M220.986 145.101C220.835 143.543 219.46 142.406 217.901 142.549C216.343 142.7 215.206 144.076 215.349 145.634C215.468 146.875 216.192 150.365 218.617 150.135C221.042 149.904 221.098 146.342 220.978 145.101H220.986Z" fill="#221F1F" stroke="black" stroke-miterlimit="10"/>
<path d="M269.043 144.767C269.552 143.288 271.158 142.501 272.637 143.01C274.115 143.519 274.903 145.125 274.394 146.604C273.988 147.781 272.47 151.01 270.172 150.214C267.874 149.419 268.645 145.952 269.043 144.767Z" fill="#221F1F" stroke="black" stroke-miterlimit="10"/>
<path d="M225.407 126.105C225.407 126.105 223.173 122.558 216.828 122.757C210.483 122.956 208.479 126.638 208.479 126.638" stroke="#231F20" stroke-linecap="round" stroke-linejoin="round"/>
<path d="M283.936 124.276C283.936 124.276 281.701 120.729 275.356 120.928C269.011 121.127 267.008 124.809 267.008 124.809" stroke="#231F20" stroke-linecap="round" stroke-linejoin="round"/>
<path d="M295.783 248.18C302.486 256.45 312.496 265.602 322.451 269.92C331.508 273.919 344.659 273.737 353.413 269.148C357.094 267.153 359.973 264.059 362.756 260.974L342.798 251.122" fill="white"/>
<path d="M295.783 248.18C302.486 256.45 312.496 265.602 322.451 269.92C331.508 273.919 344.659 273.737 353.413 269.148C357.094 267.153 359.973 264.059 362.756 260.974L342.798 251.122" stroke="black" stroke-miterlimit="10"/>
<path d="M336.572 235.282C350.645 236.578 364.918 235.727 378.745 232.761C382.553 231.942 386.386 230.964 390.282 231.084C394.178 231.203 398.241 232.626 400.578 235.743C404.005 240.339 402.511 247.273 398.575 251.44C394.639 255.607 388.922 257.555 383.324 258.819C363.606 263.256 342.416 260.831 324.216 252.044" fill="white"/>
<path d="M336.572 235.282C350.645 236.578 364.918 235.727 378.745 232.761C382.553 231.942 386.386 230.964 390.282 231.084C394.178 231.203 398.241 232.626 400.578 235.743C404.005 240.339 402.511 247.273 398.575 251.44C394.639 255.607 388.922 257.555 383.324 258.819C363.606 263.256 342.416 260.831 324.216 252.044" stroke="black" stroke-miterlimit="10"/>
<path d="M315.104 213.335C323.747 204.612 332.311 195.77 340.755 186.824C349.97 177.187 359.734 166.507 370.858 160.13C379.882 154.795 392.588 152.584 398.79 162.516C402.71 168.305 402.185 178.801 399.148 186.116C389.813 209.63 352.618 235.839 333.941 236.626" fill="white"/>
<path d="M315.104 213.335C323.747 204.612 332.311 195.77 340.755 186.824C349.97 177.187 359.734 166.507 370.858 160.13C379.882 154.795 392.588 152.584 398.79 162.516C402.71 168.305 402.185 178.801 399.148 186.116C389.813 209.63 352.618 235.839 333.941 236.626" stroke="black" stroke-miterlimit="10"/>
<path d="M252.019 236.26C228.293 236.26 210.03 232.38 196.282 224.436C193.626 222.901 192.712 219.498 194.247 216.842C195.781 214.186 199.184 213.272 201.84 214.806C214.427 222.082 232.698 225.549 256.106 225.104C280.874 224.635 301.809 217.939 315.064 206.25C317.37 204.223 320.876 204.437 322.912 206.743C324.939 209.049 324.725 212.556 322.419 214.592C307.184 228.022 283.713 235.703 256.313 236.22C254.858 236.244 253.427 236.26 252.011 236.26H252.019Z" fill="#0474FF" stroke="#231F20" stroke-linecap="round" stroke-linejoin="round"/>
<g opacity="0.3">
<path d="M317.934 146.922C320.097 145.865 321.322 143.424 320.749 140.974C320.121 138.287 319.27 135.599 318.205 132.983C314.802 124.594 309.212 117.27 302.04 111.792C299.718 110.018 296.403 110.464 294.63 112.786C292.857 115.108 293.302 118.423 295.624 120.197C301.372 124.586 305.674 130.232 308.409 136.959C309.26 139.058 309.952 141.221 310.453 143.368C311.112 146.215 313.959 147.98 316.797 147.32C317.195 147.225 317.577 147.089 317.934 146.914V146.922Z" fill="white" stroke="black" stroke-miterlimit="10"/>
<path d="M283.713 112.428C286.989 112.428 289.644 109.772 289.644 106.496C289.644 103.22 286.989 100.564 283.713 100.564C280.437 100.564 277.781 103.22 277.781 106.496C277.781 109.772 280.437 112.428 283.713 112.428Z" fill="white" stroke="black" stroke-miterlimit="10"/>
</g>
<path d="M317.934 146.922C320.097 145.865 321.322 143.424 320.749 140.974C320.121 138.287 319.27 135.599 318.205 132.983C314.802 124.594 309.212 117.27 302.04 111.792C299.718 110.018 296.403 110.464 294.63 112.786C292.857 115.108 293.302 118.423 295.624 120.197C301.372 124.586 305.674 130.232 308.409 136.959C309.26 139.058 309.952 141.221 310.453 143.368C311.112 146.215 313.959 147.98 316.797 147.32C317.195 147.225 317.577 147.089 317.934 146.914V146.922Z" fill="white" stroke="black" stroke-miterlimit="10"/>
<path d="M283.713 112.428C286.989 112.428 289.644 109.772 289.644 106.496C289.644 103.22 286.989 100.564 283.713 100.564C280.437 100.564 277.781 103.22 277.781 106.496C277.781 109.772 280.437 112.428 283.713 112.428Z" fill="white" stroke="black" stroke-miterlimit="10"/>
<path d="M215.596 302.888L227.991 277.744C229.152 275.398 228.246 272.552 225.94 271.303C223.507 269.983 220.47 270.953 219.245 273.434L206.849 298.578C205.641 301.035 206.682 304.001 209.171 305.154C211.572 306.275 214.427 305.265 215.596 302.888Z" fill="#F7971D" stroke="black" stroke-miterlimit="10"/>
<path d="M217.543 304.868L230.209 295.333C232.245 293.799 232.698 290.881 231.219 288.805C229.74 286.73 226.902 286.292 224.866 287.819L224.031 288.447C221.59 290.284 218.219 288.193 218.696 285.131C218.99 283.231 217.909 280.551 214.88 280.082C212.184 279.669 210.006 281.839 209.711 283.74C209.234 286.801 205.394 287.779 203.621 285.283L203.017 284.432C201.538 282.356 198.699 281.919 196.664 283.446C194.628 284.98 194.175 287.899 195.654 289.974L204.837 302.896C207.565 306.577 213.584 307.69 217.337 304.947L217.543 304.86V304.868Z" fill="#F7971D" stroke="black" stroke-miterlimit="10"/>
<path d="M294.868 278.603L282.449 268.822C280.366 267.184 277.352 267.51 275.674 269.554C273.933 271.669 274.275 274.794 276.422 276.488L288.849 286.269C291.028 287.978 294.185 287.541 295.815 285.298C297.349 283.175 296.936 280.225 294.884 278.603H294.868Z" fill="#F7971D" stroke="black" stroke-miterlimit="10"/>
<path d="M298.311 288.956L312.735 282.388C315.048 281.33 316.13 278.579 315.136 276.233C314.142 273.888 311.462 272.838 309.141 273.896L308.195 274.325C305.412 275.589 302.581 272.822 303.702 269.936C304.402 268.147 303.925 265.3 301.062 264.179C298.526 263.193 295.926 264.839 295.226 266.628C294.097 269.514 290.138 269.634 288.945 266.819L288.539 265.856C287.545 263.511 284.866 262.461 282.544 263.519C280.23 264.576 279.149 267.327 280.143 269.673L286.313 284.273C288.182 288.455 293.819 290.841 298.073 288.98L298.295 288.94L298.311 288.956Z" fill="#F7971D" stroke="black" stroke-miterlimit="10"/>
<g style="mix-blend-mode:multiply">
<path d="M390.322 172.726C381.902 173.426 373.1 188.709 366.993 194.959C363.05 199.666 356.418 205.67 355.13 211.204C354.049 217.733 362.088 215.92 365.968 214.122C375.652 209.479 384.088 201.591 390.6 193.289C393.797 189.043 396.707 183.365 396.023 178.093C395.641 174.984 393.654 172.575 390.433 172.726H390.322Z" fill="#ECECEC"/>
</g>
<g style="mix-blend-mode:multiply">
<path d="M358.335 265.538C356.832 266.914 355.218 268.162 353.413 269.148C344.651 273.729 331.5 273.919 322.443 269.92C317.657 267.836 312.854 264.648 308.425 260.974C307.09 262.93 305.706 264.855 304.251 266.723C304.013 266.628 303.79 266.524 303.559 266.429H303.551C303.122 265.507 302.319 264.68 301.063 264.187C300.196 263.853 299.329 263.821 298.526 264.004C294.694 261.865 290.885 259.026 288.5 255.44C287.983 254.66 287.53 253.849 287.156 252.998C286.218 250.812 286.178 248.951 286.759 247.456C288.023 244.18 292.269 242.637 296.729 243.186C302.414 243.941 307.543 246.375 312.536 249.229C318.635 252.704 324.534 256.807 331.007 259.225C332.676 259.845 334.306 260.409 335.873 260.91C348.96 265.141 358.335 265.538 358.335 265.538Z" fill="#ECECEC"/>
</g>
<path d="M64.4209 67.2699C117.709 27.7577 183.696 4.37965 255.137 4.37965C303.225 4.37965 348.841 14.9714 389.781 33.9521C403.497 40.3135 416.696 47.6132 429.282 55.7717C453.485 71.4684 475.439 90.3379 494.553 111.8" stroke="white" stroke-width="0.5" stroke-linecap="round" stroke-linejoin="round"/>
<path d="M431.263 74.7604C467.607 101.717 497.551 136.8 518.423 177.33" stroke="white" stroke-width="0.5" stroke-linecap="round" stroke-linejoin="round"/>
<path d="M0.820312 161.172C38.6836 97.725 99.6051 49.6489 172.016 28.4973C198.382 20.792 226.275 16.6651 255.129 16.6651" stroke="white" stroke-width="0.5" stroke-linecap="round" stroke-linejoin="round"/>
<path d="M96.1618 21.1339L90.3893 0.952456L84.6009 21.1339L64.4209 26.9069L84.6009 32.6958L90.3893 52.8693L96.1618 32.6958L116.342 26.9069L96.1618 21.1339Z" fill="#FDE666" stroke="black" stroke-width="0.5" stroke-linecap="round" stroke-linejoin="round"/>
<path d="M90.3893 0.952456V26.9069H64.4209L84.6009 21.1339L90.3893 0.952456Z" fill="url(#paint0_linear_16268_2949)"/>
<path d="M96.1618 21.1339L90.3893 0.952456L84.6009 21.1339L64.4209 26.9069L84.6009 32.6958L90.3893 52.8693L96.1618 32.6958L116.342 26.9069L96.1618 21.1339Z" stroke="black" stroke-width="0.5" stroke-linecap="round" stroke-linejoin="round"/>
<path d="M436.216 73.0508L433.33 62.9601L430.436 73.0508L420.346 75.9373L430.436 78.8317L433.33 88.9145L436.216 78.8317L446.306 75.9373L436.216 73.0508Z" fill="#FDE666" stroke="black" stroke-width="0.5" stroke-linecap="round" stroke-linejoin="round"/>
<path d="M433.33 62.9601V75.9373H420.346L430.436 73.0508L433.33 62.9601Z" fill="url(#paint1_linear_16268_2949)"/>
<path d="M436.216 73.0508L433.33 62.9601L430.436 73.0508L420.346 75.9373L430.436 78.8317L433.33 88.9145L436.216 78.8317L446.306 75.9373L436.216 73.0508Z" stroke="black" stroke-width="0.5" stroke-linecap="round" stroke-linejoin="round"/>
<g style="mix-blend-mode:multiply">
<path d="M257.403 201.543C257.117 207.562 247.87 212.007 236.762 211.475C225.654 210.942 216.876 205.63 217.17 199.611C217.457 193.591 225.479 199.412 236.587 199.945C247.695 200.477 257.689 195.531 257.403 201.543Z" fill="#ECECEC"/>
</g>
<path d="M258.524 427.356C318.425 427.356 366.985 409.712 366.985 387.947C366.985 366.182 318.425 348.539 258.524 348.539C198.622 348.539 150.062 366.182 150.062 387.947C150.062 409.712 198.622 427.356 258.524 427.356Z" stroke="white" stroke-miterlimit="10"/>
<path d="M178.688 378.413C178.688 394.436 214.436 407.421 258.525 407.421C302.614 407.421 338.362 394.436 338.362 378.413V363.265H178.688V378.413Z" fill="#FDE666" stroke="black" stroke-linecap="round" stroke-linejoin="round"/>
<path d="M258.525 392.281C302.618 392.281 338.362 379.294 338.362 363.273C338.362 347.252 302.618 334.265 258.525 334.265C214.432 334.265 178.688 347.252 178.688 363.273C178.688 379.294 214.432 392.281 258.525 392.281Z" fill="url(#paint2_linear_16268_2949)" stroke="black" stroke-miterlimit="10"/>
<g style="mix-blend-mode:multiply">
<path d="M258.525 374.66C284.113 374.66 304.856 368.138 304.856 360.092C304.856 352.047 284.113 345.525 258.525 345.525C232.937 345.525 212.193 352.047 212.193 360.092C212.193 368.138 232.937 374.66 258.525 374.66Z" fill="#ECECEC"/>
<path d="M258.525 374.66C284.113 374.66 304.856 368.138 304.856 360.092C304.856 352.047 284.113 345.525 258.525 345.525C232.937 345.525 212.193 352.047 212.193 360.092C212.193 368.138 232.937 374.66 258.525 374.66Z" stroke="#231F20" stroke-miterlimit="10"/>
</g>
</g>
<defs>
<linearGradient id="paint0_linear_16268_2949" x1="89.3318" y1="26.9149" x2="74.1359" y2="10.3764" gradientUnits="userSpaceOnUse">
<stop stop-color="white"/>
<stop offset="1" stop-color="#FDE666"/>
</linearGradient>
<linearGradient id="paint1_linear_16268_2949" x1="432.805" y1="75.9373" x2="425.203" y2="67.676" gradientUnits="userSpaceOnUse">
<stop stop-color="white"/>
<stop offset="1" stop-color="#FDE666"/>
</linearGradient>
<linearGradient id="paint2_linear_16268_2949" x1="178.687" y1="363.273" x2="338.362" y2="363.273" gradientUnits="userSpaceOnUse">
<stop stop-color="white"/>
<stop offset="1" stop-color="#FDE666"/>
</linearGradient>
<clipPath id="clip0_16268_2949">
<rect width="518" height="427" fill="white" transform="translate(0.621094 0.753662)"/>
</clipPath>
</defs>
</svg>
