<svg width="161" height="161" viewBox="0 0 161 161" fill="none" xmlns="http://www.w3.org/2000/svg">
<g id="Group">
<g id="Layer_3">
<path id="Vector" d="M87.7156 52.5024C87.5382 53.2187 87.3655 53.9395 87.1997 54.6626C87.3632 53.9372 87.5359 53.2187 87.7156 52.5024Z" fill="white" stroke="black" stroke-width="0.5" stroke-miterlimit="10"/>
<path id="Vector_2" d="M160.066 0.603027H0.307617V149.501H160.066V0.603027Z" fill="url(#paint0_linear_18265_2308)"/>
<path id="Vector_3" d="M160.036 135.609V160.603H0.277832V135.609C25.1026 126.169 52.0268 121.001 80.1558 121.001C108.285 121.001 135.211 126.169 160.036 135.609Z" fill="white"/>
<path id="Vector (Stroke)" d="M160.036 136.223C135.357 126.882 108.102 121.468 80.1559 121.468C52.2101 121.468 24.9574 126.663 0.277832 136.004V135.576C25.1026 126.136 52.0268 120.968 80.1559 120.968C108.285 120.968 135.212 126.136 160.036 135.576V136.223Z" fill="black"/>
<g id="Vector_4" style="mix-blend-mode:multiply">
<path d="M110.422 122.648C110.422 124.864 97.7655 127.121 82.1514 127.121C66.5374 127.121 53.8804 124.864 53.8804 122.648C53.8804 122.648 66.5374 120.939 82.1514 120.939C97.7655 120.939 110.422 122.648 110.422 122.648Z" fill="#ECECEC"/>
</g>
<g id="Group_2">
<g id="Vector_5" style="mix-blend-mode:multiply">
<path d="M137.994 146.817C144.578 146.817 149.914 145.145 149.914 143.082C149.914 141.019 144.578 139.347 137.994 139.347C131.411 139.347 126.074 141.019 126.074 143.082C126.074 145.145 131.411 146.817 137.994 146.817Z" fill="#ECECEC"/>
</g>
<path id="Vector_6" d="M149.009 141.127C138.282 148.317 122.785 142.674 114.99 129.799C120.211 131.434 126.732 133.232 126.732 133.232L128.195 128.723L137.239 136.353L144.953 125.239L152.929 128.606L156.194 125.393C156.77 130.648 155.151 137.009 149.009 141.125V141.127Z" fill="white" stroke="#231F20" stroke-width="0.5" stroke-miterlimit="10"/>
<path id="Vector_7" d="M142.524 128.739C143.476 132.417 144.68 138.575 143.752 143.557C145.587 143.038 147.354 142.235 149.007 141.127C149.73 140.643 150.389 140.125 150.99 139.584C150.81 136.535 150.212 131.058 148.22 126.621L144.952 125.241L142.524 128.739Z" fill="url(#paint1_linear_18265_2308)" stroke="black" stroke-width="0.5" stroke-linecap="round" stroke-linejoin="round"/>
<g id="Vector_8" style="mix-blend-mode:multiply">
<path d="M117.652 131.579L126.38 133.96C126.891 134.1 127.423 133.817 127.591 133.315L128.651 130.33C128.708 130.158 128.655 129.967 128.515 129.849C128.273 129.644 127.9 129.75 127.803 130.052L126.698 133.292C126.691 133.315 126.665 133.329 126.642 133.322L117.87 130.807C117.615 130.733 117.357 130.925 117.357 131.192C117.357 131.371 117.477 131.53 117.652 131.579Z" fill="#ECECEC"/>
</g>
<g id="Vector_9" style="mix-blend-mode:multiply">
<path d="M137.733 136.625C137.961 136.747 138.244 136.678 138.39 136.463L145.19 126.459L153.048 129.43L156.148 126.429C156.224 126.356 156.263 126.252 156.254 126.146C156.228 125.847 155.867 125.713 155.653 125.923L152.924 128.606L144.948 125.239L137.556 135.89C137.385 136.136 137.466 136.477 137.731 136.62L137.733 136.625Z" fill="#ECECEC"/>
</g>
</g>
<g id="Group_3">
<path id="Vector_10" d="M41.9264 29.2171L38.951 18.8262L35.971 29.2171L25.5801 32.1925L35.971 35.1725L38.951 45.5612L41.9264 35.1725L52.3174 32.1925L41.9264 29.2171Z" fill="#FDE666" stroke="black" stroke-width="0.5" stroke-linecap="round" stroke-linejoin="round"/>
<path id="Vector_11" d="M38.951 18.8262V32.1925H25.5801L35.971 29.2171L38.951 18.8262Z" fill="url(#paint2_linear_18265_2308)"/>
<path id="Vector_12" d="M41.9264 29.2171L38.951 18.8262L35.971 29.2171L25.5801 32.1925L35.971 35.1725L38.951 45.5612L41.9264 35.1725L52.3174 32.1925L41.9264 29.2171Z" stroke="black" stroke-width="0.5" stroke-linecap="round" stroke-linejoin="round"/>
</g>
<g id="Group_4">
<g id="Vector_13" style="mix-blend-mode:multiply">
<path d="M27.9617 138.119C34.6022 138.119 39.9854 136.143 39.9854 133.704C39.9854 131.266 34.6022 129.29 27.9617 129.29C21.3212 129.29 15.938 131.266 15.938 133.704C15.938 136.143 21.3212 138.119 27.9617 138.119Z" fill="#ECECEC"/>
</g>
<g id="Group_5">
<path id="Vector_14" d="M47.9674 125.236C43.7184 131.749 30.2646 137.053 20.6175 133.656C9.12113 129.607 4.14445 116.34 11.2445 99.563L12.716 107.476L20.8616 106.808L37.6732 105.433L36.6046 120.025L36.3467 123.567L39.0411 122.067L46.5418 117.888L47.972 125.234L47.9674 125.236Z" fill="white" stroke="#231F20" stroke-width="0.5" stroke-linecap="round" stroke-linejoin="round"/>
<g id="Group_6">
<path id="Vector_15" d="M37.087 113.42L36.6034 120.025L36.4744 121.803C31.021 126.222 24.5727 130.185 17.4428 132.212C16.9223 131.915 16.4226 131.597 15.939 131.254C25.4801 126.653 32.3406 119.806 37.087 113.42Z" fill="url(#paint3_linear_18265_2308)" stroke="black" stroke-width="0.5" stroke-linecap="round" stroke-linejoin="round"/>
<path id="Vector_16" d="M47.1953 121.259C42.1794 125.227 32.7995 131.447 20.9623 133.771C20.8472 133.734 20.732 133.695 20.6192 133.656C20.1885 133.504 19.7648 133.338 19.3525 133.161C22.3003 132.369 33.7184 128.84 46.7416 118.926L47.1953 121.259Z" fill="url(#paint4_linear_18265_2308)" stroke="black" stroke-width="0.5" stroke-linecap="round" stroke-linejoin="round"/>
</g>
<path id="Vector_17" d="M46.7406 118.926C33.7174 128.841 22.2993 132.369 19.3515 133.161C18.6906 132.878 18.055 132.56 17.4424 132.212C24.5723 130.186 31.0206 126.222 36.474 121.803L36.345 123.569L39.0372 122.07L46.5379 117.89L46.7406 118.926Z" fill="white" stroke="#231F20" stroke-width="0.5" stroke-linecap="round" stroke-linejoin="round"/>
</g>
<g id="Vector_18" style="mix-blend-mode:multiply">
<path d="M33.6617 106.451C33.694 106.106 33.4061 105.816 33.0606 105.841L16.6383 107.165C16.6383 107.165 16.6406 107.156 16.6429 107.151L12.714 107.474L11.2425 99.5586C5.1995 113.842 7.90778 125.58 15.9382 131.252C16.0602 131.337 16.18 131.422 16.3043 131.505C16.4264 131.588 16.5508 131.669 16.6774 131.747C16.7488 131.795 16.8225 131.841 16.8985 131.885C16.9883 131.943 17.0758 131.996 17.168 132.049C17.2578 132.104 17.3499 132.157 17.442 132.21C17.9026 132.472 18.377 132.717 18.8652 132.942C19.0218 133.014 19.1807 133.085 19.3396 133.154C19.3442 133.156 19.3465 133.156 19.3512 133.159C19.7634 133.336 20.1871 133.502 20.6178 133.654C20.7306 133.693 20.8458 133.732 20.9609 133.769C22.6789 134.333 24.5144 134.63 26.3913 134.697C25.454 134.204 24.5904 133.681 23.7936 133.129C23.3468 132.822 22.923 132.505 22.5177 132.178C22.0295 131.786 21.5689 131.383 21.1406 130.966C20.5809 130.43 20.0697 129.872 19.6022 129.301C14.4136 122.957 14.7729 114.779 16.3297 108.363L33.1505 106.958C33.4222 106.935 33.6387 106.723 33.6617 106.451Z" fill="#ECECEC"/>
</g>
</g>
<g id="Group_7">
<g id="Group_8">
<g id="Group_9">
<path id="Vector_19" d="M65.169 85.5566L50.057 86.9269L45.2231 88.6011L51.0819 100.197L63.3105 101.631L79.7675 100.197L65.169 85.5566Z" fill="white"/>
<g id="Group_10">
<g id="Vector_20">
<path d="M46.3694 95.1992C46.3694 95.1992 45.3423 97.0485 45.2294 98.6306C45.1166 100.213 45.9088 101.774 47.0925 102.829C48.2762 103.884 49.8123 104.476 51.3691 104.777C55.4453 105.563 60.1917 104.376 63.3076 101.634" fill="white"/>
<path d="M46.3694 95.1992C46.3694 95.1992 45.3423 97.0485 45.2294 98.6306C45.1166 100.213 45.9088 101.774 47.0925 102.829C48.2762 103.884 49.8123 104.476 51.3691 104.777C55.4453 105.563 60.1917 104.376 63.3076 101.634" stroke="black" stroke-width="0.5" stroke-miterlimit="10"/>
</g>
<g id="Vector_21">
<path d="M40.9193 80.2347C39.929 78.1805 36.8315 77.8535 35.0352 79.2583C33.2389 80.6631 32.6609 83.2009 32.9902 85.4555C33.5107 89.0113 35.9196 92.1525 38.9986 94.0087C47.2731 98.9946 57.5604 97.9813 57.5604 97.9813" fill="white"/>
<path d="M40.9193 80.2347C39.929 78.1805 36.8315 77.8535 35.0352 79.2583C33.2389 80.6631 32.6609 83.2009 32.9902 85.4555C33.5107 89.0113 35.9196 92.1525 38.9986 94.0087C47.2731 98.9946 57.5604 97.9813 57.5604 97.9813" stroke="black" stroke-width="0.5" stroke-miterlimit="10"/>
</g>
<g id="Vector_22">
<path d="M64.7964 83.0834C58.0303 75.8867 51.7709 68.3998 46.4304 60.093C45.2536 58.322 44.0998 56.5534 42.7664 54.8883C39.9545 51.305 35.0722 47.4014 30.4087 49.3613C25.158 51.8392 25.0014 59.1419 26.6042 64.0587C30.2406 75.8038 40.62 84.8498 52.1048 91.3464" fill="white"/>
<path d="M64.7964 83.0834C58.0303 75.8867 51.7709 68.3998 46.4304 60.093C45.2536 58.322 44.0998 56.5534 42.7664 54.8883C39.9545 51.305 35.0722 47.4014 30.4087 49.3613C25.158 51.8392 25.0014 59.1419 26.6042 64.0587C30.2406 75.8038 40.62 84.8498 52.1048 91.3464" stroke="black" stroke-width="0.5" stroke-miterlimit="10"/>
</g>
</g>
</g>
<g id="Group_11">
<path id="Vector_23" d="M96.1324 106.311L98.7117 116.626L95.3079 117.478L92.7286 107.161C92.4661 106.106 93.2122 105.07 94.2969 104.984C95.149 104.918 95.9251 105.477 96.1347 106.309L96.1324 106.311Z" fill="#F7971D" stroke="black" stroke-width="0.5" stroke-miterlimit="10"/>
<g id="Group_12">
<g id="Vector_24">
<path d="M98.1912 115.343C99.8494 117.018 101.83 118.415 104.522 119.023C105.349 119.21 106.714 119.254 107.527 119.297C108.384 119.291 109.061 120.15 108.748 120.983C108.531 121.658 107.797 122.139 107.097 122.34C105.512 122.832 104.644 122.432 103.021 122.379C101.984 122.363 100.95 122.805 99.8885 122.738C98.8453 122.66 97.8366 122.227 96.7795 122.388C95.4645 122.533 90.0595 123.733 90.7849 121.195C91.105 120.47 92.2496 120.113 92.9013 119.479C93.91 118.498 94.4812 117.181 95.4323 116.124" fill="#F7971D"/>
<path d="M98.1912 115.343C99.8494 117.018 101.83 118.415 104.522 119.023C105.349 119.21 106.714 119.254 107.527 119.297C108.384 119.291 109.061 120.15 108.748 120.983C108.531 121.658 107.797 122.139 107.097 122.34C105.512 122.832 104.644 122.432 103.021 122.379C101.984 122.363 100.95 122.805 99.8885 122.738C98.8453 122.66 97.8366 122.227 96.7795 122.388C95.4645 122.533 90.0595 123.733 90.7849 121.195C91.105 120.47 92.2496 120.113 92.9013 119.479C93.91 118.498 94.4812 117.181 95.4323 116.124" stroke="black" stroke-width="0.5" stroke-miterlimit="10"/>
</g>
<g id="Vector_25">
<path d="M99.5054 119.385C99.5054 119.385 100.689 121.16 103.02 122.381L99.5054 119.385Z" fill="#F7971D"/>
<path d="M99.5054 119.385C99.5054 119.385 100.689 121.16 103.02 122.381" stroke="black" stroke-width="0.5" stroke-miterlimit="10"/>
</g>
<g id="Vector_26">
<path d="M96.8691 119.595C96.8691 119.595 97.0441 121.345 96.7793 122.388L96.8691 119.595Z" fill="#F7971D"/>
<path d="M96.8691 119.595C96.8691 119.595 97.0441 121.345 96.7793 122.388" stroke="black" stroke-width="0.5" stroke-miterlimit="10"/>
</g>
</g>
</g>
<g id="Group_13" style="mix-blend-mode:multiply">
<path id="Vector_27" d="M56.1224 87.3255C56.3481 90.4921 58.1812 100.107 63.3099 101.634C66.4696 102.573 66.6561 100.337 68.5906 97.1684C69.5878 95.5586 60.8803 89.1794 61.1428 87.3255C61.7715 82.8854 64.1206 78.1874 64.1206 78.1874C62.8332 76.9415 60.148 77.538 58.7593 76.4026C57.716 75.6565 47.9653 62.4214 47.9653 62.4214C47.9653 62.4214 55.0884 72.7962 56.1224 87.3255Z" fill="#ECECEC"/>
</g>
<g id="Group_14">
<path id="Vector_28" d="M91.5309 43.2261C81.2413 40.4418 70.6914 44.8888 65.2979 53.465C64.1556 55.2821 62.813 56.9747 61.1687 58.3519C58.9256 60.2311 57.3228 62.5709 56.5858 65.2953C53.8891 75.2648 63.1976 88.2788 78.4662 90.5863C82.8741 91.2519 91.167 91.5444 96.2957 90.812C105.422 89.5086 111.719 85.2872 112.34 75.3822C112.619 70.9583 110.581 65.3506 109.678 61.53C107.603 52.7442 101.505 45.9205 91.5309 43.2238V43.2261Z" fill="white" stroke="black" stroke-width="0.5" stroke-miterlimit="10"/>
<g id="Group_15">
<path id="Vector_29" d="M93.6499 66.5963C93.1318 67.7086 91.9504 68.2982 90.7966 68.1231C90.5502 68.0863 90.3014 68.0126 90.0619 67.8997C89.4424 67.6119 88.8391 67.3447 88.2426 67.096C79.9819 63.6416 73.9459 63.7844 71.5669 64.5513C71.2122 64.6641 70.853 64.7009 70.5052 64.6687C69.4574 64.5766 68.5132 63.8696 68.17 62.8056C67.7164 61.387 68.4971 59.8647 69.9157 59.4088C70.6826 59.16 71.5738 58.9643 72.5756 58.8353C73.3701 58.7317 74.1462 58.4991 74.8348 58.0915C76.5505 57.0759 78.6139 56.6268 80.7373 56.9492C82.4253 57.2071 83.9292 57.921 85.1474 58.9459C86.5407 60.1181 88.0814 61.2028 89.7695 61.8844C90.6146 62.2253 91.4736 62.6006 92.3465 63.0083C93.6983 63.637 94.2809 65.2444 93.6499 66.5963Z" fill="#FDE666" stroke="black" stroke-width="0.5" stroke-miterlimit="10"/>
<g id="Group_16">
<path id="Vector_30" d="M77.4451 58.9253L77.3438 60.284" stroke="black" stroke-width="0.5" stroke-miterlimit="10"/>
<path id="Vector_31" d="M82.1071 59.6367L81.354 60.8964" stroke="black" stroke-width="0.5" stroke-miterlimit="10"/>
</g>
</g>
<g id="Group_17">
<path id="Vector_32" d="M72.7731 54.8677C72.8077 54.2229 72.3125 53.6725 71.67 53.6379C71.0252 53.6034 70.4748 54.0985 70.4402 54.7411C70.4126 55.2546 70.4955 56.7239 71.4996 56.7769C72.5037 56.8298 72.7432 55.3813 72.7708 54.8654L72.7731 54.8677Z" fill="#221F1F" stroke="black" stroke-width="0.5" stroke-miterlimit="10"/>
<path id="Vector_33" d="M92.4169 57.661C92.714 57.0875 93.4187 56.8642 93.9921 57.1612C94.5656 57.4583 94.789 58.163 94.4919 58.7365C94.2547 59.1947 93.4394 60.4176 92.5459 59.9547C91.6523 59.4918 92.182 58.1193 92.4169 57.6633V57.661Z" fill="#221F1F" stroke="black" stroke-width="0.5" stroke-miterlimit="10"/>
</g>
<g id="Group_18">
<path id="Vector_34" d="M76.9253 46.2383C76.9253 46.2383 76.2275 44.6539 73.6275 44.3476C71.0252 44.0413 69.9819 45.4208 69.9819 45.4208" stroke="black" stroke-width="0.5" stroke-linecap="round" stroke-linejoin="round"/>
<path id="Vector_35" d="M100.935 49.0596C100.935 49.0596 100.237 47.4752 97.6373 47.1689C95.0349 46.8626 93.9917 48.2421 93.9917 48.2421" stroke="black" stroke-width="0.5" stroke-linecap="round" stroke-linejoin="round"/>
</g>
<g id="Vector_36">
<path d="M58.2612 80.4165L69.1841 86.1025L96.1448 89.8057L107.164 86.4341L114.453 94.9113C114.453 94.9113 117.012 105.422 116.892 105.79C116.772 106.159 112.609 109.418 112.609 109.418L84.5725 108.13" fill="white"/>
<path d="M58.2612 80.4165L69.1841 86.1025L96.1448 89.8057L107.164 86.4341L114.453 94.9113C114.453 94.9113 117.012 105.422 116.892 105.79C116.772 106.159 112.609 109.418 112.609 109.418L84.5725 108.13" stroke="black" stroke-width="0.5" stroke-miterlimit="10"/>
</g>
<g id="Vector_37">
<path d="M61.1434 87.3252C60.16 93.9116 61.0743 99.547 64.9755 104.353C70.9125 111.852 82.0312 114.608 90.8492 110.995C95.112 109.369 98.442 106.311 101.445 102.985" fill="white"/>
<path d="M61.1434 87.3252C60.16 93.9116 61.0743 99.547 64.9755 104.353C70.9125 111.852 82.0312 114.608 90.8492 110.995C95.112 109.369 98.442 106.311 101.445 102.985" stroke="black" stroke-width="0.5" stroke-miterlimit="10"/>
</g>
<g id="Vector_38">
<path d="M108.296 88.5942C111.462 90.0405 114.928 91.7861 117.542 93.967C120.412 96.4519 122.963 99.1372 123.408 102.656C123.652 108.144 117.669 111.092 111.589 112.407C107.547 113.178 103.28 113.386 99.2245 112.911C96.6958 112.672 92.3202 110.882 93.3243 106.76C94.3906 102.375 100.233 102.304 103.135 101.654C105.514 101.175 106.626 101.014 108.865 99.0957" fill="white"/>
<path d="M108.296 88.5942C111.462 90.0405 114.928 91.7861 117.542 93.967C120.412 96.4519 122.963 99.1372 123.408 102.656C123.652 108.144 117.669 111.092 111.589 112.407C107.547 113.178 103.28 113.386 99.2245 112.911C96.6958 112.672 92.3202 110.882 93.3243 106.76C94.3906 102.375 100.233 102.304 103.135 101.654C105.514 101.175 106.626 101.014 108.865 99.0957" stroke="black" stroke-width="0.5" stroke-miterlimit="10"/>
</g>
<g id="Vector_39">
<path d="M94.7207 103.147C95.1767 101.472 97.4152 100.277 98.8983 99.8579C100.381 99.4387 102.555 98.8952 104.916 96.7466" fill="white"/>
<path d="M94.7207 103.146C95.1767 101.472 97.4152 100.277 98.8983 99.8579C100.381 99.4387 102.555 98.8952 104.916 96.7466" stroke="black" stroke-width="0.5" stroke-miterlimit="10"/>
</g>
<path id="Vector_40" d="M119.606 69.397C116.773 88.3595 100.337 90.4252 81.9688 87.6824C63.6005 84.9396 50.2595 78.4291 53.0898 59.4643C55.9201 40.4995 73.1071 27.3519 91.4754 30.0947C109.844 32.8376 122.439 50.4344 119.606 69.397Z" stroke="black" stroke-width="0.5" stroke-miterlimit="10"/>
<g id="Group_19">
<g id="Group_20" opacity="0.3">
<path id="Vector_41" d="M113.165 59.9202C114.111 59.6185 114.76 58.6973 114.675 57.6656C114.583 56.5302 114.399 55.381 114.125 54.248C113.245 50.6162 111.41 47.2815 108.817 44.6101C107.978 43.7465 106.597 43.7235 105.731 44.5641C104.865 45.4023 104.844 46.7841 105.685 47.65C107.764 49.7941 109.178 52.3596 109.883 55.2751C110.104 56.1848 110.251 57.1082 110.325 58.0156C110.422 59.2178 111.474 60.1113 112.676 60.0146C112.844 60.0008 113.008 59.9685 113.165 59.9179V59.9202Z" fill="white" stroke="black" stroke-width="0.5" stroke-miterlimit="10"/>
<path id="Vector_42" d="M101.654 43.7767C103.007 43.7767 104.104 42.6796 104.104 41.3263C104.104 39.973 103.007 38.876 101.654 38.876C100.301 38.876 99.2036 39.973 99.2036 41.3263C99.2036 42.6796 100.301 43.7767 101.654 43.7767Z" fill="white" stroke="black" stroke-width="0.5" stroke-miterlimit="10"/>
</g>
<g id="Group_21">
<path id="Vector_43" d="M113.165 59.9202C114.111 59.6185 114.76 58.6973 114.675 57.6656C114.583 56.5302 114.399 55.381 114.125 54.248C113.245 50.6162 111.41 47.2815 108.817 44.6101C107.978 43.7465 106.597 43.7235 105.731 44.5641C104.865 45.4023 104.844 46.7841 105.685 47.65C107.764 49.7941 109.178 52.3596 109.883 55.2751C110.104 56.1848 110.251 57.1082 110.325 58.0156C110.422 59.2178 111.474 60.1113 112.676 60.0146C112.844 60.0008 113.008 59.9685 113.165 59.9179V59.9202Z" stroke="black" stroke-width="0.5" stroke-miterlimit="10"/>
<path id="Vector_44" d="M101.654 43.7767C103.007 43.7767 104.104 42.6796 104.104 41.3263C104.104 39.973 103.007 38.876 101.654 38.876C100.301 38.876 99.2036 39.973 99.2036 41.3263C99.2036 42.6796 100.301 43.7767 101.654 43.7767Z" stroke="black" stroke-width="0.5" stroke-miterlimit="10"/>
</g>
</g>
<g id="Group_22" style="mix-blend-mode:multiply">
<path id="Vector_45" d="M106.997 98.2941C107.271 97.1012 106.046 95.3394 103.513 95.5858C100.316 95.8967 97.9532 96.2836 94.1856 99.8578C91.5464 102.248 90.114 106.628 92.8821 109.406C93.1792 109.724 93.52 110.005 93.8908 110.253C93.5154 109.558 93.3082 108.807 93.3082 108.022C93.3082 104.519 95.5282 103.02 102.442 101.679C105.553 101.076 106.61 99.9845 106.997 98.2964V98.2941Z" fill="#ECECEC"/>
</g>
</g>
<g id="Group_23">
<path id="Vector_46" d="M66.5486 104.906L62.1016 116.011L65.7656 117.478L70.2126 106.373C70.6662 105.238 69.9915 103.969 68.7963 103.711C67.8543 103.508 66.9055 104.013 66.5463 104.906H66.5486Z" fill="#F7971D" stroke="black" stroke-width="0.5" stroke-miterlimit="10"/>
<g id="Group_24">
<g id="Vector_47">
<path d="M63.012 115.113C61.3539 116.787 59.3734 118.185 56.6812 118.793C55.8545 118.979 54.4888 119.023 53.6759 119.067C52.8192 119.06 52.1421 119.919 52.4553 120.753C52.6718 121.427 53.4064 121.909 54.1065 122.109C55.691 122.602 56.5592 122.201 58.1827 122.148C59.2191 122.132 60.2531 122.574 61.3148 122.508C62.358 122.429 63.3667 121.996 64.4238 122.158C65.7387 122.303 71.1438 123.502 70.4183 120.965C70.0982 120.239 68.9537 119.882 68.3019 119.249C67.2932 118.268 66.7221 116.951 65.771 115.893" fill="#F7971D"/>
<path d="M63.012 115.113C61.3539 116.787 59.3734 118.185 56.6812 118.793C55.8545 118.979 54.4888 119.023 53.6759 119.067C52.8192 119.06 52.1421 119.919 52.4553 120.753C52.6718 121.427 53.4064 121.909 54.1065 122.109C55.691 122.602 56.5592 122.201 58.1827 122.148C59.2191 122.132 60.2531 122.574 61.3148 122.508C62.358 122.429 63.3667 121.996 64.4238 122.158C65.7387 122.303 71.1438 123.502 70.4183 120.965C70.0982 120.239 68.9537 119.882 68.3019 119.249C67.2932 118.268 66.7221 116.951 65.771 115.893" stroke="black" stroke-width="0.5" stroke-miterlimit="10"/>
</g>
<g id="Vector_48">
<path d="M61.6974 119.154C61.6974 119.154 60.5137 120.93 58.1831 122.15L61.6974 119.154Z" fill="#F7971D"/>
<path d="M61.6974 119.154C61.6974 119.154 60.5137 120.93 58.1831 122.15" stroke="black" stroke-width="0.5" stroke-miterlimit="10"/>
</g>
<g id="Vector_49">
<path d="M64.3365 119.364C64.3365 119.364 64.1615 121.115 64.4263 122.158L64.3365 119.364Z" fill="#F7971D"/>
<path d="M64.3365 119.364C64.3365 119.364 64.1615 121.115 64.4263 122.158" stroke="black" stroke-width="0.5" stroke-miterlimit="10"/>
</g>
</g>
</g>
<path id="Vector_50" d="M73.8393 69.4197C71.4235 69.4658 68.3053 71.3012 69.9427 74.1408C72.1029 77.1876 78.3899 78.1594 82.1783 77.7058C85.8745 77.3212 87.3438 74.6474 84.4237 72.2109C81.7522 70.0807 77.4618 69.323 73.8923 69.4151H73.837L73.8393 69.4197Z" fill="#ECECEC"/>
<path id="Vector_51" d="M93.8913 91.9359C90.4645 91.9129 86.4412 91.6504 81.8514 90.9756C65.3876 88.5575 58.5962 83.7558 58.3152 83.5509C57.4332 82.913 57.2328 81.6786 57.873 80.7942C58.511 79.9122 59.7407 79.7142 60.6228 80.3475C60.6734 80.3843 62.2648 81.4874 65.6847 82.8485C68.8858 84.122 74.3898 85.8884 82.4248 87.0698C90.4921 88.2558 96.6548 88.0716 100.402 87.7077C104.46 87.3139 106.64 86.6322 106.663 86.6253C107.7 86.296 108.81 86.8671 109.141 87.9035C109.473 88.9398 108.907 90.0475 107.872 90.3837C107.596 90.4736 102.739 91.9981 93.8889 91.9359H93.8913Z" fill="#0474FF" stroke="#231F20" stroke-width="0.5" stroke-linecap="round" stroke-linejoin="round"/>
</g>
<path id="Vector_52" d="M36.6023 51.6962C34.6287 50.676 31.1443 50.9661 30.9624 53.6076C31.0338 56.5577 35.9414 59.4387 38.5322 59.3005C41.2543 59.0564 40.5703 55.6342 39.3244 54.0129C38.6428 53.0365 37.7055 52.2259 36.6553 51.7238L36.6023 51.6985V51.6962Z" fill="#ECECEC"/>
</g>
</g>
</g>
<defs>
<linearGradient id="paint0_linear_18265_2308" x1="80.1879" y1="4.24169" x2="80.1879" y2="138.076" gradientUnits="userSpaceOnUse">
<stop stop-color="white"/>
<stop offset="1" stop-color="#FDE666"/>
</linearGradient>
<linearGradient id="paint1_linear_18265_2308" x1="144.583" y1="122.181" x2="147.402" y2="141.074" gradientUnits="userSpaceOnUse">
<stop stop-color="white"/>
<stop offset="1" stop-color="#FDE666"/>
</linearGradient>
<linearGradient id="paint2_linear_18265_2308" x1="38.4075" y1="32.1948" x2="30.5821" y2="23.6785" gradientUnits="userSpaceOnUse">
<stop stop-color="white"/>
<stop offset="1" stop-color="#FDE666"/>
</linearGradient>
<linearGradient id="paint3_linear_18265_2308" x1="15.939" y1="122.816" x2="37.087" y2="122.816" gradientUnits="userSpaceOnUse">
<stop stop-color="white"/>
<stop offset="1" stop-color="#FDE666"/>
</linearGradient>
<linearGradient id="paint4_linear_18265_2308" x1="19.3525" y1="126.349" x2="47.1953" y2="126.349" gradientUnits="userSpaceOnUse">
<stop stop-color="white"/>
<stop offset="1" stop-color="#FDE666"/>
</linearGradient>
</defs>
</svg>
